<svg width="32" height="32" viewBox="0 0 32 32" fill="none" xmlns="http://www.w3.org/2000/svg">
<path d="M3.51586 18.7C2.93761 18.622 2.34486 18.3165 1.92886 17.8818C1.62711 17.5683 1.44136 17.2675 1.29986 16.8663C1.20136 16.586 1.19336 16.5213 1.19336 15.9963C1.19336 15.4708 1.20136 15.4053 1.29986 15.125C1.79786 13.703 3.33811 12.9375 4.75111 13.4083C5.60661 13.6925 6.29886 14.4405 6.53336 15.333C6.61936 15.6603 6.62011 16.288 6.53536 16.6388C6.21011 17.9788 4.88386 18.8835 3.51586 18.7ZM4.42011 16.8663C4.77936 16.1475 5.07336 15.543 5.07336 15.5225C5.07336 15.499 4.89561 15.4843 4.61936 15.4843H4.16511V14.6455C4.16511 14.1835 4.15261 13.8183 4.13761 13.833C4.08111 13.8898 2.77761 16.4513 2.79211 16.4785C2.79986 16.4943 3.00986 16.5068 3.25786 16.5068H3.71011V17.3398C3.71011 17.7978 3.72261 18.1728 3.73936 18.1728C3.75511 18.1728 4.06186 17.585 4.42011 16.8663ZM12.7111 18.3613C12.5129 18.3105 12.2256 18.1593 12.1261 18.0528C11.8741 17.7823 11.7931 17.1818 11.9621 16.833C12.1096 16.5263 12.4426 16.3223 12.9269 16.2393C13.1739 16.1963 13.6486 16.209 13.9044 16.2658C14.0069 16.2883 14.0079 16.2853 14.0079 16.1045C14.0079 15.7178 13.8779 15.461 13.6174 15.3253C13.4836 15.2558 13.4024 15.2443 13.0999 15.249C12.9014 15.253 12.6426 15.2793 12.5236 15.3075L12.3076 15.3603L12.2834 15.1855C12.2364 14.8525 12.2316 14.8663 12.4366 14.8105C12.5411 14.7823 12.8321 14.75 13.0831 14.7383C13.4474 14.7218 13.5841 14.7305 13.7619 14.7823C14.2101 14.913 14.4679 15.1923 14.5644 15.6533C14.5969 15.8095 14.6124 16.2608 14.6134 17.079L14.6144 18.2773L14.3204 18.3223C13.9319 18.3818 12.8909 18.4073 12.7111 18.3613ZM13.8321 17.8838L14.0079 17.8595V17.3175C14.0079 16.9415 13.9944 16.7675 13.9629 16.749C13.9386 16.7335 13.7461 16.713 13.5344 16.704C13.0431 16.6815 12.7814 16.75 12.6114 16.9433C12.5099 17.0585 12.4944 17.1065 12.4944 17.2863C12.4944 17.625 12.5869 17.747 12.9289 17.8545C13.0949 17.907 13.5549 17.922 13.8321 17.8838ZM15.7364 18.3253C15.5929 18.287 15.4621 18.2413 15.4454 18.2238C15.4171 18.1943 15.4934 17.7725 15.5344 17.7313C15.5441 17.7218 15.6604 17.753 15.7921 17.7988C16.1144 17.912 16.8371 17.9258 17.0256 17.8223C17.1876 17.7343 17.2639 17.6153 17.2639 17.454C17.2639 17.1728 17.0559 17.0058 16.3361 16.713C15.6866 16.4483 15.4796 16.211 15.4796 15.7325C15.4796 15.2608 15.7286 14.9453 16.2149 14.797C16.4386 14.7295 16.5401 14.7208 16.8809 14.7383C17.3409 14.7618 17.6809 14.831 17.6809 14.9023C17.6809 14.954 17.6016 15.3458 17.5881 15.3613C17.5831 15.3673 17.4464 15.337 17.2831 15.295C16.9326 15.206 16.6984 15.1993 16.4514 15.2745C16.1839 15.3545 16.0899 15.459 16.0899 15.6778C16.0899 15.9785 16.2111 16.0733 17.0031 16.3935C17.5831 16.627 17.8039 16.841 17.8674 17.2305C17.9591 17.792 17.6856 18.1905 17.1036 18.3455C16.8096 18.4238 16.0606 18.413 15.7364 18.3253ZM19.3839 18.3418C19.1446 18.2675 18.9524 18.0938 18.8284 17.8408L18.7219 17.624V13.8018L18.8919 13.7735C18.99 13.758 19.0879 13.7413 19.1856 13.7235L19.3086 13.7023V14.8028H20.6339V15.295H19.3051L19.3169 16.365C19.3266 17.3575 19.3334 17.4453 19.4056 17.582C19.4486 17.665 19.5406 17.7608 19.6126 17.7998C19.7876 17.8935 20.1909 17.8935 20.4584 17.7988L20.6596 17.7288L20.7171 17.9708C20.7719 18.1983 20.7719 18.2148 20.7074 18.249C20.4379 18.3935 19.7139 18.4443 19.3839 18.3418ZM8.82136 15.9768V13.63H11.6614V14.1593H9.46311L9.47386 14.8888L9.48361 15.6173L10.4591 15.627L11.4336 15.6378V16.166H9.46511V18.3243H8.82161L8.82136 15.9768ZM21.0119 18.3048C21.0119 18.2618 21.7081 16.3985 21.9669 15.75C22.1547 15.2829 22.3504 14.819 22.5539 14.3585L22.8781 13.63H23.1896C23.4541 13.63 23.5051 13.6398 23.5226 13.6953C23.5334 13.7325 23.6691 14.0428 23.8244 14.3868C24.1631 15.1408 24.5666 16.1475 25.0244 17.3808C25.2119 17.8858 25.3664 18.3058 25.3664 18.3125C25.3664 18.3203 25.2101 18.3225 25.0189 18.3165L24.6711 18.3048L24.4601 17.7188L24.2481 17.1318L23.1701 17.121L22.0909 17.1113L21.8781 17.708L21.6661 18.3048L21.3389 18.3165C21.1594 18.3223 21.0119 18.3175 21.0119 18.3048ZM24.0411 16.5723C24.0411 16.4503 23.2179 14.3868 23.1691 14.3868C23.1076 14.3868 22.2991 16.413 22.2991 16.5665C22.2991 16.6115 22.4444 16.62 23.1701 16.62C23.8469 16.62 24.0411 16.609 24.0411 16.5723ZM26.0479 16V13.6758L26.1711 13.6513C26.4366 13.5995 27.7121 13.5813 27.9494 13.627C28.4914 13.7285 28.9044 13.9493 29.1066 14.2433C29.4641 14.7638 29.4054 15.6445 28.9854 16.0655C28.6604 16.3905 28.1486 16.541 27.2686 16.5733L26.6916 16.5938V18.3243H26.0479V16ZM28.0216 15.9405C28.4739 15.7988 28.6661 15.539 28.6661 15.0693C28.6661 14.4218 28.2139 14.123 27.2354 14.122C27.0666 14.122 26.8741 14.132 26.8096 14.1455L26.6916 14.169V16.0635L27.2441 16.036C27.6076 16.0185 27.8751 15.9853 28.0216 15.9405ZM30.2121 15.9765V13.63H30.8556V18.3243H30.2121V15.9765Z" fill="#049688"/>
</svg>
