<svg width="32" height="14" viewBox="0 0 32 14" fill="none" xmlns="http://www.w3.org/2000/svg">
<g clip-path="url(#clip0_101_89)">
<path d="M19.1232 4.82402C18.4236 4.82402 17.9026 5.18024 17.9026 6.03761C17.9026 6.68355 18.2459 7.13207 19.0854 7.13207C19.7971 7.13207 20.2804 6.69717 20.2804 6.01078C20.2804 5.233 19.8479 4.82402 19.1232 4.82402ZM17.7244 10.8779C17.5588 11.0885 17.3938 11.3125 17.3938 11.5766C17.3938 12.1038 18.0421 12.2624 18.9326 12.2624C19.6701 12.2624 20.6748 12.2088 20.6748 11.4976C20.6748 11.0749 20.1914 11.0488 19.5807 11.0092L17.7244 10.8779ZM21.4886 4.86381C21.7171 5.16715 21.9591 5.58935 21.9591 6.19589C21.9591 7.65967 20.8527 8.51678 19.2507 8.51678C18.8433 8.51678 18.4746 8.46415 18.2459 8.3983L17.8261 9.097L19.0722 9.17607C21.2724 9.32152 22.5691 9.38763 22.5691 11.1409C22.5691 12.6578 21.2851 13.5145 19.0722 13.5145C16.7706 13.5145 15.8931 12.9079 15.8931 11.8661C15.8931 11.2727 16.1474 10.9568 16.5926 10.5209C16.1728 10.3369 16.0331 10.0074 16.0331 9.65104C16.0331 9.36067 16.1728 9.09713 16.4021 8.8463C16.6308 8.59611 16.8851 8.34528 17.1903 8.05517C16.5673 7.73861 16.0966 7.05287 16.0966 6.07676C16.0966 4.56048 17.0632 3.51904 19.0084 3.51904C19.5554 3.51904 19.8862 3.57115 20.1787 3.65087H22.6587V4.77139L21.4886 4.86381ZM24.8959 2.46735C24.1709 2.46735 23.7513 2.0318 23.7513 1.27981C23.7513 0.52887 24.1708 0.119629 24.8959 0.119629C25.6334 0.119629 26.0532 0.52887 26.0532 1.27981C26.0532 2.0318 25.6336 2.46735 24.8959 2.46735ZM23.2552 10.3925V9.3512L23.9039 9.25917C24.0821 9.23259 24.1073 9.19318 24.1073 8.99498V5.11776C24.1073 4.97309 24.0693 4.88028 23.9417 4.84113L23.2552 4.5903L23.3949 3.52241H26.0276V8.99498C26.0276 9.20628 26.0398 9.23259 26.2312 9.2593L26.8797 9.35133V10.3925H23.2552ZM31.9086 9.88126C31.3616 10.158 30.5604 10.4086 29.8353 10.4086C28.3221 10.4086 27.7501 9.77626 27.7501 8.28526V4.8305C27.7501 4.75143 27.7501 4.69867 27.6479 4.69867H26.7579V3.52461C27.8773 3.39239 28.3221 2.81217 28.4619 1.3747H29.6702V3.24785C29.6702 3.33989 29.6702 3.37968 29.7721 3.37968H31.5649V4.69841H29.6702V7.85009C29.6702 8.62813 29.8484 8.9312 30.5348 8.9312C30.8913 8.9312 31.2597 8.83917 31.5648 8.72043L31.9086 9.88126Z" fill="#2F2707"/>
<path d="M13.066 6.42063L7.25153 0.39117C7.1719 0.308566 7.07736 0.243039 6.97331 0.198332C6.86925 0.153626 6.75772 0.130615 6.64509 0.130615C6.53246 0.130615 6.42094 0.153626 6.31688 0.198332C6.21283 0.243039 6.11829 0.308566 6.03866 0.39117L4.83128 1.64339L6.36291 3.23161C6.54295 3.1682 6.73651 3.1583 6.9217 3.20304C7.10689 3.24778 7.2763 3.34537 7.41078 3.48478C7.5459 3.62516 7.64025 3.8021 7.68304 3.99542C7.72583 4.18874 7.71534 4.39064 7.65278 4.57808L9.12866 6.10887C9.48578 5.98132 9.89791 6.06389 10.183 6.3601C10.2778 6.45833 10.3531 6.57498 10.4044 6.70338C10.4557 6.83177 10.4821 6.9694 10.4821 7.10838C10.4821 7.24737 10.4557 7.38499 10.4044 7.51339C10.3531 7.64178 10.2778 7.75843 10.183 7.85667C10.0163 8.02979 9.79677 8.13762 9.56196 8.16181C9.32714 8.18599 9.0915 8.12504 8.89514 7.98933C8.69878 7.85362 8.55384 7.65153 8.48499 7.41746C8.41614 7.1834 8.42764 6.93182 8.51753 6.70556L7.14103 5.27808L7.14091 9.03474C7.24064 9.08601 7.33176 9.15359 7.41078 9.23489C7.50557 9.33317 7.58076 9.44984 7.63206 9.57826C7.68336 9.70667 7.70976 9.84431 7.70976 9.98331C7.70976 10.1223 7.68336 10.2599 7.63206 10.3884C7.58076 10.5168 7.50557 10.6335 7.41078 10.7317C7.01203 11.1452 6.36578 11.1452 5.96766 10.7317C5.84872 10.6085 5.76099 10.4566 5.71227 10.2898C5.66355 10.1229 5.65535 9.94607 5.68841 9.7751C5.72146 9.60412 5.79474 9.44427 5.90172 9.30975C6.00871 9.17523 6.14609 9.07021 6.30166 9.00402V5.21236C6.17657 5.15925 6.06301 5.0807 5.96766 4.98136C5.66566 4.66856 5.59303 4.20902 5.74778 3.82441L4.23803 2.25848L0.251282 6.39263C0.171616 6.47525 0.108421 6.57332 0.0653061 6.68126C0.0221911 6.7892 0 6.90489 0 7.02173C0 7.13856 0.0221911 7.25425 0.0653061 7.36219C0.108421 7.47013 0.171616 7.56821 0.251282 7.65082L6.06578 13.6804C6.14541 13.763 6.23995 13.8285 6.34401 13.8732C6.44806 13.918 6.55959 13.941 6.67222 13.941C6.78485 13.941 6.89638 13.918 7.00043 13.8732C7.10448 13.8285 7.19903 13.763 7.27866 13.6804L13.066 7.67895C13.2269 7.51205 13.3172 7.28575 13.3172 7.04979C13.3172 6.81383 13.2269 6.58753 13.066 6.42063Z" fill="#DE4C36"/>
</g>
<defs>
<clipPath id="clip0_101_89">
<rect width="32" height="14" fill="white"/>
</clipPath>
</defs>
</svg>
