<svg width="32" height="8" viewBox="0 0 32 8" fill="none" xmlns="http://www.w3.org/2000/svg">
<g clip-path="url(#clip0_101_86)">
<path d="M2.48056 0.818375C2.15556 0.452745 1.87562 0.0814267 1.8185 0.00427113C1.81714 0.00292121 1.8155 0.00184672 1.81369 0.00111261C1.81188 0.000378496 1.80994 0 1.80797 0C1.806 0 1.80405 0.000378496 1.80224 0.00111261C1.80043 0.00184672 1.7988 0.00292121 1.79744 0.00427113C1.74025 0.0814267 1.46037 0.452745 1.13537 0.818375C-1.65431 4.19177 1.57475 6.46827 1.57475 6.46827L1.60181 6.48546C1.62587 6.83675 1.68606 7.34235 1.68606 7.34235H1.92681C1.92681 7.34235 1.987 6.83959 2.01106 6.48546L2.03819 6.46543C2.04119 6.46827 5.27019 4.19177 2.48056 0.818375ZM1.80644 6.41689C1.80644 6.41689 1.662 6.29974 1.62287 6.23983V6.23408L1.79744 2.56077C1.79744 2.54934 1.8155 2.54934 1.8155 2.56077L1.99 6.23408V6.23983C1.95087 6.29974 1.80644 6.41689 1.80644 6.41689Z" fill="#01EC64"/>
<path d="M7.84945 5.66741L6.50383 2.55138L6.50089 2.54278H5.45402V2.75221H5.62289C5.6742 2.75221 5.72245 2.77235 5.7587 2.80672C5.79489 2.84115 5.81302 2.88708 5.81302 2.93591L5.78283 6.07191C5.78283 6.16951 5.69839 6.24981 5.59577 6.25271L5.42383 6.25555V6.46213H6.44358V6.25555L6.33795 6.25271C6.23539 6.24981 6.15089 6.16951 6.15089 6.07197V3.11653L7.61714 6.46207C7.63827 6.51084 7.68652 6.54243 7.74089 6.54243C7.79514 6.54243 7.84339 6.51084 7.86452 6.46207L9.29764 3.19114L9.31877 6.07191C9.31877 6.17229 9.23427 6.25265 9.12864 6.25549H9.02002V6.46207H10.2148V6.25549H10.0518C9.94933 6.25549 9.86477 6.17229 9.86183 6.07475L9.8527 2.93864C9.85266 2.891 9.87215 2.84522 9.90706 2.81096C9.94197 2.7767 9.98955 2.75665 10.0398 2.75505L10.2148 2.75215V2.54272H9.19502L7.84945 5.66741ZM17.2315 6.20098C17.1983 6.16939 17.1801 6.12631 17.1801 6.07452V4.53401C17.1801 4.24086 17.0894 4.01087 16.9079 3.84708C16.7294 3.68323 16.4814 3.59991 16.1729 3.59991C15.7403 3.59991 15.3985 3.76661 15.1595 4.09425C15.1565 4.1 15.1475 4.1029 15.1384 4.1029C15.1293 4.1029 15.1233 4.09709 15.1233 4.0885L15.0113 3.67748H14.8238L14.3428 3.93905V4.08275H14.4668C14.5243 4.08275 14.5727 4.09709 14.606 4.12589C14.6393 4.15464 14.6574 4.19772 14.6574 4.25804V6.07167C14.6574 6.12341 14.6393 6.16655 14.606 6.19819C14.5727 6.22978 14.5273 6.24702 14.4729 6.24702H14.3519V6.4568H15.459V6.24702H15.338C15.2835 6.24702 15.2381 6.22978 15.2049 6.19819C15.1716 6.16655 15.1535 6.12341 15.1535 6.07167V4.87025C15.1535 4.71795 15.1898 4.5656 15.2563 4.41609C15.3259 4.26954 15.4287 4.14592 15.5648 4.05105C15.701 3.95618 15.8643 3.91025 16.0518 3.91025C16.2636 3.91025 16.4239 3.97348 16.5237 4.09994C16.6235 4.2264 16.675 4.39025 16.675 4.58569V6.06877C16.675 6.1205 16.6568 6.16358 16.6235 6.19523C16.5902 6.22687 16.5449 6.24406 16.4904 6.24406H16.3695V6.45389H17.4765V6.24412H17.3556C17.3102 6.24986 17.2678 6.23262 17.2315 6.20098ZM27.3461 2.77739C27.0401 2.6229 26.6981 2.54272 26.329 2.54272H24.889V2.75161H25.03C25.084 2.75161 25.132 2.77164 25.18 2.81739C25.225 2.86035 25.249 2.90901 25.249 2.9605V6.03902C25.249 6.09058 25.225 6.13917 25.18 6.18213C25.135 6.22504 25.084 6.24791 25.03 6.24791H24.889V6.4568H26.329C26.6981 6.4568 27.0401 6.37668 27.3461 6.22213C27.6521 6.06758 27.9011 5.83872 28.0811 5.54693C28.2611 5.25514 28.3541 4.9032 28.3541 4.50261C28.3541 4.10207 28.2611 3.75298 28.0811 3.45834C27.8981 3.1608 27.652 2.93472 27.3461 2.77739ZM27.7752 4.49692C27.7752 4.86314 27.7062 5.17212 27.5711 5.42106C27.4361 5.66995 27.2561 5.85591 27.0341 5.97615C26.8121 6.09627 26.5661 6.15635 26.3021 6.15635H26.0111C25.9571 6.15635 25.9091 6.13632 25.8611 6.09058C25.8161 6.04761 25.7921 5.99902 25.7921 5.94752V3.04347C25.7921 2.99191 25.8131 2.94622 25.8611 2.90041C25.9061 2.85751 25.9571 2.83464 26.0111 2.83464H26.3021C26.5661 2.83464 26.8121 2.89467 27.0341 3.01484C27.2562 3.13502 27.4361 3.32098 27.5711 3.56992C27.7061 3.82166 27.7752 4.13354 27.7752 4.49692ZM31.7582 4.70581C31.625 4.55985 31.368 4.43683 31.0657 4.37099C31.4831 4.1736 31.6976 3.89609 31.6976 3.5384C31.6976 3.34391 31.6434 3.16933 31.5343 3.02059C31.4256 2.87185 31.2712 2.75161 31.0748 2.66865C30.878 2.58569 30.6481 2.54278 30.3881 2.54278H28.758V2.75161H28.888C28.9425 2.75161 28.9909 2.77164 29.0393 2.81739C29.0846 2.86035 29.1088 2.90901 29.1088 2.9605V6.03902C29.1088 6.09058 29.0846 6.13917 29.0393 6.18213C28.9939 6.22504 28.9425 6.24791 28.888 6.24791H28.7459V6.4568H30.5153C30.7843 6.4568 31.0353 6.41389 31.2622 6.32803C31.4891 6.24222 31.6705 6.1163 31.8006 5.95037C31.9336 5.78444 32.0001 5.58124 32.0001 5.34664C31.9971 5.0949 31.9185 4.88027 31.7582 4.70581ZM29.7288 6.09342C29.6835 6.05052 29.6593 6.00187 29.6593 5.95037V4.56838H30.5001C30.7963 4.56838 31.0231 4.63989 31.1805 4.7829C31.3377 4.92599 31.4163 5.11199 31.4164 5.34089C31.4164 5.47819 31.3799 5.61271 31.3136 5.73573C31.244 5.8616 31.141 5.96175 31.0021 6.03902C30.8658 6.11624 30.6965 6.15635 30.5001 6.15635H29.8799C29.8255 6.15635 29.7771 6.13627 29.7287 6.09336M29.6622 4.27369V3.04631C29.6622 2.99481 29.6833 2.94907 29.7317 2.90326C29.7771 2.86035 29.8285 2.83748 29.883 2.83748H30.2822C30.5693 2.83748 30.7812 2.90616 30.9144 3.03778C31.0473 3.17224 31.1138 3.34391 31.1138 3.55558C31.1138 3.77307 31.0503 3.94758 30.9264 4.0792C30.8023 4.20791 30.6148 4.27375 30.3669 4.27375L29.6622 4.27369ZM13.017 3.78231C12.7858 3.66261 12.5277 3.59979 12.2486 3.59979C11.9768 3.59979 11.7221 3.65662 11.4983 3.77283L11.4803 3.78231C11.2491 3.90207 11.0661 4.076 10.931 4.29555C10.796 4.51511 10.727 4.77176 10.727 5.05686C10.727 5.34201 10.796 5.59867 10.931 5.81822C11.0661 6.03778 11.2491 6.2117 11.4803 6.33141C11.7114 6.45111 11.9695 6.51392 12.2486 6.51392C12.5204 6.51392 12.7751 6.45715 12.9988 6.34101L13.017 6.33147C13.248 6.2117 13.4311 6.03778 13.5662 5.81822C13.7012 5.59867 13.7703 5.34201 13.7703 5.05686C13.7703 4.77176 13.7012 4.51511 13.5662 4.29555C13.4312 4.076 13.2481 3.90201 13.017 3.78231ZM13.239 5.05692C13.239 5.40767 13.149 5.69277 12.9689 5.8981C12.7918 6.10338 12.5488 6.20886 12.2486 6.20886C11.9538 6.20886 11.7141 6.10711 11.5378 5.90901L11.5283 5.8981C11.3482 5.69277 11.2581 5.40767 11.2581 5.05692C11.2581 4.71262 11.345 4.43149 11.5186 4.22705L11.5283 4.21579C11.7053 4.01052 11.9485 3.90498 12.2486 3.90498C12.5488 3.90498 12.7918 4.01046 12.9689 4.21579C13.149 4.42112 13.239 4.70622 13.239 5.05692ZM23.6535 3.78237C23.4223 3.66267 23.1643 3.59985 22.8851 3.59985C22.6134 3.59985 22.3586 3.65668 22.1349 3.77289L22.1168 3.78237C21.8857 3.90213 21.7026 4.07606 21.5676 4.29561C21.4325 4.51517 21.3635 4.77182 21.3635 5.05692C21.3635 5.34207 21.4325 5.59872 21.5676 5.81828C21.7026 6.03784 21.8857 6.21176 22.1168 6.33147C22.3479 6.45123 22.606 6.51398 22.8851 6.51398C23.1569 6.51398 23.4116 6.45721 23.6354 6.34107L23.6535 6.33152C23.8846 6.21176 24.0676 6.03784 24.2027 5.81828C24.3378 5.59872 24.4068 5.34207 24.4068 5.05692C24.4068 4.77182 24.3378 4.51517 24.2027 4.29561C24.0676 4.07606 23.8816 3.90207 23.6535 3.78237ZM23.8756 5.05698C23.8756 5.40773 23.7855 5.69283 23.6055 5.89816C23.4283 6.10344 23.1853 6.20892 22.8851 6.20892C22.5903 6.20892 22.3506 6.10717 22.1744 5.90907L22.1648 5.89816C21.9848 5.69283 21.8947 5.40773 21.8947 5.05698C21.8947 4.70984 21.9815 4.43144 22.1551 4.22711L22.1648 4.21585C22.3419 4.01058 22.585 3.90504 22.8851 3.90504C23.1853 3.90504 23.4283 4.01052 23.6055 4.21585C23.7826 4.42118 23.8756 4.70628 23.8756 5.05698ZM19.364 3.59997C19.1221 3.59997 18.9015 3.64866 18.702 3.74604C18.5025 3.84341 18.3453 3.9752 18.2335 4.14421C18.1222 4.3082 18.0634 4.49921 18.0642 4.69419C18.0642 4.87179 18.1065 5.03505 18.1942 5.18118C18.2788 5.32151 18.3936 5.43896 18.5388 5.53632L18.1065 6.09206C18.0521 6.1608 18.0461 6.25247 18.0853 6.32696C18.1276 6.40429 18.2063 6.4501 18.297 6.4501H18.4209C18.305 6.52424 18.2113 6.61152 18.1452 6.7144L18.1367 6.72797C18.0581 6.85111 18.0188 6.98006 18.0188 7.11179C18.0188 7.35375 18.1296 7.55428 18.3483 7.70515L18.3604 7.71333C18.5841 7.86515 18.8985 7.94249 19.2944 7.94249C19.5695 7.94249 19.8325 7.89952 20.0713 7.81644C20.3061 7.73579 20.4982 7.61721 20.642 7.46349L20.6545 7.44987C20.8026 7.28939 20.8783 7.09461 20.8783 6.8712C20.8783 6.63629 20.7876 6.47013 20.576 6.30978C20.3946 6.17514 20.1105 6.10355 19.7568 6.10355H18.5478C18.5461 6.1034 18.5444 6.10274 18.543 6.10166L18.5418 6.10065L18.5412 6.09947C18.5406 6.09763 18.5396 6.09413 18.5418 6.09206L18.8561 5.69105C18.9306 5.72393 19.0086 5.74889 19.0889 5.76548C19.1614 5.77982 19.243 5.78557 19.3337 5.78557C19.5876 5.78557 19.8173 5.73686 20.0168 5.63949C20.2163 5.54207 20.3765 5.41034 20.4914 5.24127C20.6062 5.07517 20.6636 4.88898 20.6636 4.69135C20.6636 4.47938 20.5549 4.09265 20.2586 3.89502C20.2586 3.89324 20.2597 3.89259 20.2606 3.89229L20.2616 3.89212L20.9115 3.96086V3.6773H19.8717C19.7085 3.62859 19.5392 3.59997 19.364 3.59997ZM19.7266 5.39315C19.6118 5.4504 19.4879 5.48192 19.364 5.48192C19.1615 5.48192 18.9831 5.41318 18.832 5.27855C18.6808 5.14391 18.6053 4.94628 18.6053 4.69419C18.6053 4.4421 18.6808 4.24441 18.832 4.10984C18.9831 3.97526 19.1614 3.90646 19.364 3.90646C19.4856 3.90646 19.6017 3.93277 19.7123 3.98788L19.7266 3.99523C19.8415 4.05253 19.9352 4.14136 20.0108 4.25881C20.0833 4.37627 20.1226 4.52234 20.1226 4.69419C20.1226 4.86895 20.0863 5.01502 20.0108 5.12957C19.9383 5.24702 19.8415 5.33585 19.7266 5.39315ZM18.9075 6.4472H19.7266C19.9533 6.4472 20.0985 6.49016 20.1951 6.58184C20.2918 6.67351 20.3402 6.79665 20.3402 6.93988C20.3402 7.14901 20.2526 7.32092 20.0773 7.44975C19.902 7.57869 19.6662 7.64453 19.376 7.64453C19.1221 7.64453 18.9105 7.59013 18.7563 7.48702C18.6021 7.38391 18.5236 7.22628 18.5236 7.02581C18.5236 6.89976 18.5599 6.78231 18.6325 6.6792C18.705 6.57609 18.7926 6.5016 18.9075 6.4472" fill="#001E2B"/>
</g>
<defs>
<clipPath id="clip0_101_86">
<rect width="32" height="8" fill="white"/>
</clipPath>
</defs>
</svg>
