<svg width="32" height="32" viewBox="0 0 32 32" fill="none" xmlns="http://www.w3.org/2000/svg">
<g clip-path="url(#clip0_101_73)">
<mask id="mask0_101_73" style="mask-type:luminance" maskUnits="userSpaceOnUse" x="0" y="0" width="32" height="32">
<path d="M16 32C24.8366 32 32 24.8366 32 16C32 7.16344 24.8366 0 16 0C7.16344 0 0 7.16344 0 16C0 24.8366 7.16344 32 16 32Z" fill="white"/>
</mask>
<g mask="url(#mask0_101_73)">
<path d="M16 32C24.8366 32 32 24.8366 32 16C32 7.16344 24.8366 0 16 0C7.16344 0 0 7.16344 0 16C0 24.8366 7.16344 32 16 32Z" fill="black"/>
<path d="M26.5793 28.0036L12.292 9.6001H9.6001V22.3947H11.7536V12.3351L24.8888 29.3058C25.4807 28.9099 26.0455 28.4748 26.5793 28.0036Z" fill="url(#paint0_linear_101_73)"/>
<path d="M20.4443 9.6001H22.5777V22.4001H20.4443V9.6001Z" fill="url(#paint1_linear_101_73)"/>
</g>
</g>
<defs>
<linearGradient id="paint0_linear_101_73" x1="954.207" y1="1120.71" x2="1521.21" y2="1823.49" gradientUnits="userSpaceOnUse">
<stop stop-color="white"/>
<stop offset="1" stop-color="white" stop-opacity="0"/>
</linearGradient>
<linearGradient id="paint1_linear_101_73" x1="127.113" y1="9.6001" x2="123.504" y2="949.593" gradientUnits="userSpaceOnUse">
<stop stop-color="white"/>
<stop offset="1" stop-color="white" stop-opacity="0"/>
</linearGradient>
<clipPath id="clip0_101_73">
<rect width="32" height="32" fill="white"/>
</clipPath>
</defs>
</svg>
