<svg width="52" height="32" viewBox="0 0 52 32" fill="none" xmlns="http://www.w3.org/2000/svg">
<g clip-path="url(#clip0_101_34)">
<path d="M25.7065 31.9077C25.5305 31.9077 25.3662 31.8606 25.2135 31.7781L23.6524 30.8477C23.4176 30.718 23.535 30.671 23.6055 30.6474C23.9224 30.5414 23.9811 30.5178 24.3097 30.3295C24.345 30.3058 24.392 30.3176 24.4271 30.3412L25.6245 31.0597C25.6714 31.0832 25.7301 31.0832 25.7652 31.0597L30.4488 28.3388C30.4957 28.3153 30.5193 28.2681 30.5193 28.2093V22.7795C30.5193 22.7205 30.4957 22.6735 30.4488 22.6499L25.7652 19.9409C25.7183 19.9172 25.6596 19.9172 25.6245 19.9409L20.9409 22.6499C20.894 22.6734 20.8704 22.7323 20.8704 22.7794V28.2092C20.8704 28.2564 20.894 28.3152 20.9409 28.3388L22.2204 29.0808C22.913 29.4342 23.3472 29.0219 23.3472 28.6097V23.2505C23.3472 23.1799 23.4059 23.1092 23.4881 23.1092H24.0867C24.1572 23.1092 24.2276 23.1681 24.2276 23.2505V28.6097C24.2276 29.5402 23.7228 30.082 22.8425 30.082C22.5725 30.082 22.3613 30.082 21.7626 29.7875L20.5301 29.0808C20.2249 28.9042 20.0371 28.5744 20.0371 28.221V22.7912C20.0371 22.4379 20.2249 22.108 20.5301 21.9314L25.2135 19.2106C25.5071 19.0457 25.9062 19.0457 26.1996 19.2106L30.8831 21.9314C31.1883 22.108 31.3762 22.4379 31.3762 22.7912V28.221C31.3762 28.5744 31.1883 28.9042 30.8831 29.0808L26.1996 31.8017C26.047 31.8724 25.8709 31.9077 25.7065 31.9077ZM27.1504 28.1739C25.0963 28.1739 24.6737 27.2317 24.6737 26.4308C24.6737 26.36 24.7324 26.2894 24.8146 26.2894H25.425C25.4954 26.2894 25.5541 26.3365 25.5541 26.4072C25.648 27.0314 25.918 27.3377 27.1622 27.3377C28.1482 27.3377 28.5709 27.1139 28.5709 26.5838C28.5709 26.2776 28.4534 26.0539 26.9157 25.9007C25.6362 25.7711 24.8381 25.4885 24.8381 24.4638C24.8381 23.5097 25.6364 22.9443 26.9744 22.9443C28.4769 22.9443 29.2164 23.4626 29.3104 24.5932C29.3104 24.6286 29.2986 24.664 29.2751 24.6993C29.2516 24.7228 29.2164 24.7464 29.1812 24.7464H28.5708C28.5121 24.7464 28.4534 24.6993 28.4417 24.6404C28.3008 23.9926 27.9369 23.7806 26.9744 23.7806C25.8945 23.7806 25.7653 24.1575 25.7653 24.4401C25.7653 24.7817 25.918 24.8877 27.3735 25.0762C28.8173 25.2647 29.4982 25.5356 29.4982 26.5485C29.4864 27.585 28.6413 28.1739 27.1504 28.1739Z" fill="#539E43"/>
<path d="M11.1747 10.6713C11.1747 10.4593 11.0573 10.259 10.8695 10.153L5.89253 7.27911C5.81027 7.23192 5.71642 7.20838 5.62258 7.19656H5.57555C5.48171 7.19656 5.38777 7.23192 5.3056 7.27911L0.328633 10.153C0.140742 10.259 0.0234375 10.4592 0.0234375 10.6713L0.0352187 18.3979C0.0352187 18.5039 0.0939219 18.6099 0.187766 18.657C0.281711 18.7159 0.399016 18.7159 0.481281 18.657L3.43929 16.9609C3.62708 16.855 3.74448 16.6547 3.74448 16.4427V12.8267C3.74448 12.6148 3.86179 12.4145 4.04968 12.3085L5.3056 11.5782C5.39955 11.5193 5.50517 11.4957 5.6108 11.4957C5.71642 11.4957 5.82205 11.5193 5.90431 11.5782L7.16023 12.3085C7.34812 12.4145 7.46543 12.6146 7.46543 12.8267V16.4427C7.46543 16.6547 7.58284 16.855 7.77062 16.9609L10.7286 18.657C10.7743 18.6859 10.8272 18.7012 10.8812 18.7012C10.9352 18.7012 10.9881 18.6859 11.0338 18.657C11.1278 18.6099 11.1865 18.5039 11.1865 18.3979L11.1747 10.6713ZM35.097 0.0353885C35.0032 -0.0117962 34.8858 -0.0117962 34.8035 0.0353885C34.7097 0.094293 34.651 0.188459 34.651 0.294446V7.9505C34.651 8.02112 34.6158 8.09175 34.5453 8.13893C34.4749 8.17419 34.4045 8.17419 34.3341 8.13893L33.0899 7.42046C32.9986 7.36837 32.8955 7.34098 32.7905 7.34098C32.6855 7.34098 32.5824 7.36837 32.4911 7.42046L27.5142 10.3062C27.3264 10.4122 27.209 10.6124 27.209 10.8244V16.584C27.209 16.7959 27.3264 16.9963 27.5142 17.1023L32.4911 19.988C32.5824 20.0401 32.6855 20.0675 32.7905 20.0675C32.8955 20.0675 32.9986 20.0401 33.0899 19.988L38.0668 17.1023C38.2546 16.9963 38.372 16.7961 38.372 16.584V2.22617C38.372 2.00237 38.2546 1.80222 38.0668 1.69613L35.097 0.0353885ZM34.6393 14.6877C34.6393 14.7466 34.6158 14.7937 34.5688 14.8172L32.8668 15.8066C32.8431 15.8183 32.817 15.8243 32.7905 15.8243C32.764 15.8243 32.7379 15.8183 32.7142 15.8066L31.0122 14.8172C30.9652 14.7937 30.9417 14.7348 30.9417 14.6877V12.7089C30.9417 12.65 30.9652 12.6029 31.0122 12.5794L32.7142 11.5899C32.7379 11.5783 32.764 11.5722 32.7905 11.5722C32.817 11.5722 32.8431 11.5783 32.8668 11.5899L34.5688 12.5794C34.6158 12.6028 34.6393 12.6618 34.6393 12.7089V14.6877ZM51.6595 12.6618C51.8474 12.5558 51.9531 12.3556 51.9531 12.1435V10.7419C51.9531 10.53 51.8357 10.3297 51.6595 10.2237L46.7178 7.34983C46.6266 7.29775 46.5234 7.27036 46.4185 7.27036C46.3135 7.27036 46.2103 7.29775 46.1191 7.34983L41.1421 10.2354C40.9542 10.3414 40.8369 10.5417 40.8369 10.7537V16.5134C40.8369 16.7253 40.9543 16.9256 41.1421 17.0316L46.0839 19.8584C46.2718 19.9644 46.4948 19.9644 46.6709 19.8584L49.664 18.186C49.758 18.1388 49.8167 18.0328 49.8167 17.9269C49.8167 17.8209 49.758 17.7149 49.664 17.6677L44.6636 14.782C44.5697 14.7231 44.511 14.6289 44.511 14.5229V12.7208C44.511 12.6149 44.5697 12.5089 44.6636 12.4617L46.2247 11.5665C46.2704 11.5376 46.3233 11.5223 46.3773 11.5223C46.4313 11.5223 46.4842 11.5376 46.5299 11.5665L48.0911 12.4617C48.1851 12.5206 48.2437 12.6148 48.2437 12.7208V14.1342C48.2437 14.2402 48.3024 14.3462 48.3963 14.3933C48.442 14.4222 48.4949 14.4375 48.5489 14.4375C48.6029 14.4375 48.6558 14.4222 48.7015 14.3933L51.6595 12.6618Z" fill="#333333"/>
<path d="M46.3419 12.391C46.3594 12.3794 46.3798 12.3733 46.4007 12.3733C46.4215 12.3733 46.4419 12.3794 46.4594 12.391L47.4102 12.9445C47.4453 12.9682 47.4688 13.0034 47.4688 13.0505V14.1578C47.4688 14.2049 47.4454 14.2402 47.4102 14.2638L46.4594 14.8174C46.4419 14.8289 46.4215 14.835 46.4007 14.835C46.3798 14.835 46.3594 14.8289 46.3419 14.8174L45.3912 14.2638C45.356 14.2402 45.3325 14.2049 45.3325 14.1578V13.0506C45.3325 13.0034 45.3559 12.9681 45.3912 12.9446L46.3419 12.391Z" fill="#539E43"/>
<path d="M19.4969 7.37339C19.4057 7.32132 19.3026 7.29395 19.1976 7.29395C19.0927 7.29395 18.9895 7.32132 18.8983 7.37339L13.9566 10.2354C13.7687 10.3413 13.6631 10.5416 13.6631 10.7536V16.4897C13.6631 16.7017 13.7805 16.902 13.9566 17.0079L18.8983 19.8701C18.9895 19.9222 19.0927 19.9496 19.1976 19.9496C19.3026 19.9496 19.4057 19.9222 19.4969 19.8701L24.4388 17.0079C24.6266 16.902 24.7323 16.7017 24.7323 16.4897V10.7537C24.7323 10.5417 24.6148 10.3414 24.4388 10.2355L19.4969 7.37339Z" fill="url(#paint0_linear_101_34)"/>
<mask id="mask0_101_34" style="mask-type:luminance" maskUnits="userSpaceOnUse" x="13" y="7" width="12" height="13">
<path d="M19.4969 7.37339C19.4057 7.32132 19.3026 7.29395 19.1976 7.29395C19.0927 7.29395 18.9895 7.32132 18.8983 7.37339L13.9566 10.2354C13.7687 10.3413 13.6631 10.5416 13.6631 10.7536V16.4897C13.6631 16.7017 13.7805 16.902 13.9566 17.0079L18.8983 19.8701C18.9895 19.9222 19.0927 19.9496 19.1976 19.9496C19.3026 19.9496 19.4057 19.9222 19.4969 19.8701L24.4388 17.0079C24.6266 16.902 24.7323 16.7017 24.7323 16.4897V10.7537C24.7323 10.5417 24.6148 10.3414 24.4388 10.2355L19.4969 7.37339Z" fill="white"/>
</mask>
<g mask="url(#mask0_101_34)">
<path d="M24.4503 10.2354L19.4851 7.37336C19.4363 7.34862 19.3852 7.32889 19.3325 7.31445L13.7686 16.8786C13.8147 16.935 13.8703 16.9829 13.933 17.0199L18.8982 19.8821C19.039 19.9645 19.2034 19.9881 19.3559 19.9409L24.5795 10.3533C24.5442 10.3062 24.4972 10.2707 24.4503 10.2354Z" fill="url(#paint1_linear_101_34)"/>
</g>
<mask id="mask1_101_34" style="mask-type:luminance" maskUnits="userSpaceOnUse" x="13" y="7" width="12" height="13">
<path d="M19.4969 7.37339C19.4057 7.32132 19.3026 7.29395 19.1976 7.29395C19.0927 7.29395 18.9895 7.32132 18.8983 7.37339L13.9566 10.2354C13.7687 10.3413 13.6631 10.5416 13.6631 10.7536V16.4897C13.6631 16.7017 13.7805 16.902 13.9566 17.0079L18.8983 19.8701C18.9895 19.9222 19.0927 19.9496 19.1976 19.9496C19.3026 19.9496 19.4057 19.9222 19.4969 19.8701L24.4388 17.0079C24.6266 16.902 24.7323 16.7017 24.7323 16.4897V10.7537C24.7323 10.5417 24.6148 10.3414 24.4388 10.2355L19.4969 7.37339Z" fill="white"/>
</mask>
<g mask="url(#mask1_101_34)">
<path fill-rule="evenodd" clip-rule="evenodd" d="M24.4623 17.0078C24.6031 16.9254 24.7088 16.784 24.7558 16.631L19.3091 7.30247C19.1682 7.27893 19.0156 7.29065 18.8866 7.37309L13.9565 10.2235L19.2738 19.9525C19.3512 19.9398 19.4263 19.916 19.4969 19.8818L24.4623 17.0078Z" fill="url(#paint2_linear_101_34)"/>
<path fill-rule="evenodd" clip-rule="evenodd" d="M24.4622 17.0081L19.5087 19.8702C19.4387 19.906 19.3634 19.9298 19.2856 19.9409L19.3796 20.1176L24.873 16.9257V16.855L24.7321 16.6194C24.7087 16.7843 24.6031 16.9256 24.4622 17.0081Z" fill="url(#paint3_linear_101_34)"/>
<path fill-rule="evenodd" clip-rule="evenodd" d="M24.4622 17.0081L19.5087 19.8702C19.4387 19.906 19.3634 19.9298 19.2856 19.9409L19.3796 20.1176L24.873 16.9257V16.855L24.7321 16.6194C24.7087 16.7843 24.6031 16.9256 24.4622 17.0081Z" fill="url(#paint4_linear_101_34)"/>
</g>
</g>
<defs>
<linearGradient id="paint0_linear_101_34" x1="768.449" y1="228.603" x2="224.15" y2="1080.94" gradientUnits="userSpaceOnUse">
<stop stop-color="#41873F"/>
<stop offset="0.3288" stop-color="#418B3D"/>
<stop offset="0.6352" stop-color="#419637"/>
<stop offset="0.9319" stop-color="#3FA92D"/>
<stop offset="1" stop-color="#3FAE2A"/>
</linearGradient>
<linearGradient id="paint1_linear_101_34" x1="481.633" y1="705.231" x2="1840.31" y2="-30.4213" gradientUnits="userSpaceOnUse">
<stop offset="0.1376" stop-color="#41873F"/>
<stop offset="0.4032" stop-color="#54A044"/>
<stop offset="0.7136" stop-color="#66B848"/>
<stop offset="0.9081" stop-color="#6CC04A"/>
</linearGradient>
<linearGradient id="paint2_linear_101_34" x1="-33.4413" y1="640.289" x2="1110.07" y2="640.289" gradientUnits="userSpaceOnUse">
<stop offset="0.09192" stop-color="#6CC04A"/>
<stop offset="0.2864" stop-color="#66B848"/>
<stop offset="0.5968" stop-color="#54A044"/>
<stop offset="0.8624" stop-color="#41873F"/>
</linearGradient>
<linearGradient id="paint3_linear_101_34" x1="-561.023" y1="192.491" x2="582.475" y2="192.491" gradientUnits="userSpaceOnUse">
<stop offset="0.09192" stop-color="#6CC04A"/>
<stop offset="0.2864" stop-color="#66B848"/>
<stop offset="0.5968" stop-color="#54A044"/>
<stop offset="0.8624" stop-color="#41873F"/>
</linearGradient>
<linearGradient id="paint4_linear_101_34" x1="749.067" y1="-721.74" x2="457.455" y2="801.079" gradientUnits="userSpaceOnUse">
<stop stop-color="#41873F"/>
<stop offset="0.3288" stop-color="#418B3D"/>
<stop offset="0.6352" stop-color="#419637"/>
<stop offset="0.9319" stop-color="#3FA92D"/>
<stop offset="1" stop-color="#3FAE2A"/>
</linearGradient>
<clipPath id="clip0_101_34">
<rect width="52" height="32" fill="white"/>
</clipPath>
</defs>
</svg>
