<svg width="32" height="32" viewBox="0 0 32 32" fill="none" xmlns="http://www.w3.org/2000/svg">
<g clip-path="url(#clip0_101_61)">
<path d="M2.45878 18.8157L2.44128 18.7802C2.40553 18.7092 2.40553 18.6382 2.42328 18.5492H0.504778L3.34728 13.5037L4.53778 15.6535L4.92853 15.3692L3.73853 13.2195C3.72053 13.184 3.57853 12.9707 3.34753 12.9707C3.24078 12.9707 3.08103 13.0062 2.95653 13.2372L0.0782778 18.3362C0.0605278 18.3895 -0.0639722 18.6205 0.0427778 18.8157C0.113778 18.9225 0.220278 19.029 0.469028 19.029H2.88528C2.63653 19.029 2.51228 18.9225 2.45878 18.8157Z" fill="#00C58E"/>
<path d="M7.93085 18.3539L5.62135 14.1964C5.58585 14.1609 5.46135 13.9302 5.2306 13.9302C5.12385 13.9302 4.9641 13.9834 4.8396 14.1967L4.5376 14.6942V15.6534L5.2306 14.4632L7.52235 18.5492H6.65185C6.66651 18.6338 6.65409 18.7208 6.61635 18.7979L6.5986 18.8157C6.49185 19.0112 6.22535 19.0289 6.18985 19.0289H7.5401C7.59335 19.0289 7.8421 19.0114 7.9666 18.8157C8.01985 18.7269 8.05535 18.5672 7.93085 18.3539Z" fill="#108775"/>
<path d="M6.66972 18.8158V18.7983L6.68722 18.7626C6.70522 18.6916 6.72297 18.6206 6.70522 18.5493L6.63422 18.3363L4.82197 15.1738L4.55547 14.6941H4.53772L4.27122 15.1741L2.45897 18.3363L2.38797 18.5493C2.37065 18.6397 2.38311 18.7332 2.42347 18.8158C2.49472 18.9226 2.60122 19.0291 2.84997 19.0291H6.22547C6.27872 19.0291 6.54547 19.0116 6.66972 18.8158ZM4.53772 15.6533L6.19022 18.5493H2.88522L4.53772 15.6533Z" fill="#2F495E"/>
<path fill-rule="evenodd" clip-rule="evenodd" d="M12.3997 15.2069C12.4214 15.2296 12.4383 15.2565 12.4495 15.2858C12.4607 15.3152 12.4658 15.3465 12.4647 15.3779V18.6999C12.4647 18.7692 12.4404 18.8384 12.3914 18.8914C12.3673 18.9167 12.3382 18.9367 12.3059 18.9501C12.2736 18.9634 12.2389 18.9698 12.2039 18.9689C12.1632 18.9689 12.1224 18.9609 12.0817 18.9487C12.0487 18.9374 12.0192 18.9176 11.9962 18.8914L9.84419 16.0914V18.7244C9.84534 18.7567 9.83978 18.7888 9.82784 18.8188C9.81591 18.8487 9.79787 18.8759 9.77488 18.8985C9.75188 18.9211 9.72443 18.9387 9.69427 18.9501C9.66411 18.9616 9.6319 18.9666 9.59969 18.9649C9.56925 18.965 9.53911 18.9589 9.51109 18.947C9.48307 18.9351 9.45776 18.9176 9.43669 18.8957C9.39234 18.8513 9.36735 18.7912 9.36719 18.7284V15.3984C9.36719 15.3294 9.39594 15.2602 9.44869 15.2112C9.47158 15.1879 9.4989 15.1694 9.52904 15.1568C9.55918 15.1443 9.59153 15.1378 9.62419 15.1379C9.66494 15.1379 9.70969 15.1459 9.74644 15.1622C9.78486 15.1756 9.81867 15.1997 9.84394 15.2317L11.9839 18.0397V15.3779C11.9828 15.3457 11.9884 15.3136 12.0004 15.2837C12.0123 15.2537 12.0304 15.2266 12.0533 15.204C12.0763 15.1814 12.1038 15.1639 12.1339 15.1524C12.1641 15.141 12.1962 15.136 12.2284 15.1377C12.2897 15.1377 12.3509 15.1579 12.3914 15.2069H12.3997ZM16.8297 15.2149C16.8747 15.2679 16.9032 15.3374 16.8992 15.4024V17.5054C16.9036 17.7758 16.8376 18.0427 16.7077 18.2799C16.5861 18.5073 16.4022 18.6953 16.1777 18.8219C15.9482 18.9569 15.6859 19.0261 15.4197 19.0219C15.1518 19.0224 14.8883 18.955 14.6534 18.8262C14.4303 18.6994 14.2469 18.5131 14.1234 18.2882C13.9936 18.0495 13.9277 17.7813 13.9322 17.5097V15.4067C13.9322 15.3372 13.9564 15.2679 14.0137 15.2192C14.0645 15.17 14.1325 15.1425 14.2032 15.1425C14.2739 15.1425 14.3419 15.17 14.3927 15.2192C14.4414 15.2679 14.4702 15.3332 14.4702 15.4067V17.5017C14.4667 17.6814 14.5117 17.8587 14.6004 18.0149C14.6829 18.1596 14.8021 18.2798 14.9459 18.3636C15.0898 18.4474 15.2532 18.4916 15.4197 18.4919C15.5495 18.4925 15.6782 18.4672 15.7982 18.4175C15.9182 18.3679 16.0271 18.2948 16.1185 18.2026C16.21 18.1104 16.2822 18.0009 16.3309 17.8805C16.3796 17.7602 16.4038 17.6313 16.4022 17.5014V15.4064C16.4022 15.3372 16.4222 15.2679 16.4672 15.2149C16.49 15.1891 16.5183 15.1687 16.5501 15.1553C16.5819 15.1419 16.6162 15.1358 16.6507 15.1374C16.7199 15.1374 16.7849 15.1662 16.8297 15.2149ZM21.0647 18.5489C21.0958 18.5945 21.1115 18.6488 21.1094 18.7039C21.1112 18.739 21.1051 18.774 21.0917 18.8064C21.0783 18.8388 21.0579 18.8678 21.0319 18.8914C20.9842 18.9356 20.9217 18.9603 20.8567 18.9607C20.8144 18.9617 20.7725 18.9522 20.7348 18.933C20.6971 18.9138 20.6647 18.8855 20.6407 18.8507L19.5809 17.4322L18.5377 18.8504C18.5147 18.8856 18.4832 18.9145 18.4462 18.9345C18.4092 18.9544 18.3677 18.9648 18.3257 18.9647C18.2946 18.965 18.2638 18.9591 18.2351 18.9472C18.2064 18.9352 18.1804 18.9177 18.1587 18.8954C18.1162 18.8548 18.0912 18.7992 18.0892 18.7404C18.0892 18.6754 18.1137 18.6102 18.1544 18.5612L19.2794 17.0327L18.1504 15.5167C18.1101 15.4675 18.0897 15.405 18.0935 15.3415C18.0972 15.278 18.1248 15.2182 18.1707 15.1742C18.2092 15.1349 18.2592 15.109 18.3135 15.1002C18.3678 15.0914 18.4235 15.1003 18.4724 15.1254C18.5115 15.1437 18.5452 15.1718 18.5702 15.2069L19.6217 16.6169L20.6569 15.2192C20.7019 15.1497 20.7794 15.1049 20.8649 15.0967C20.9299 15.0967 20.9952 15.1292 21.0399 15.1784C21.0849 15.2192 21.1134 15.2802 21.1174 15.3414C21.1174 15.4024 21.0972 15.4554 21.0604 15.5044L19.9192 17.0204L21.0604 18.5489H21.0647ZM24.9977 15.2069C25.0231 15.2301 25.0432 15.2584 25.0566 15.29C25.0699 15.3217 25.0763 15.3558 25.0752 15.3902C25.0756 15.4243 25.0684 15.458 25.0543 15.489C25.0402 15.52 25.0194 15.5476 24.9934 15.5697C24.968 15.5924 24.9384 15.6098 24.9062 15.621C24.874 15.6321 24.8399 15.6368 24.8059 15.6347H23.8359V18.7079C23.8367 18.7422 23.8302 18.7763 23.8168 18.8079C23.8035 18.8395 23.7836 18.8679 23.7584 18.8912C23.7033 18.9399 23.6323 18.9667 23.5588 18.9667C23.4853 18.9667 23.4143 18.9399 23.3592 18.8912C23.3337 18.8679 23.3133 18.8396 23.2993 18.8081C23.2852 18.7765 23.2779 18.7424 23.2777 18.7079V15.6347H22.3077C22.2384 15.6347 22.1732 15.6144 22.1202 15.5654C22.0949 15.5422 22.0749 15.5138 22.0616 15.4822C22.0482 15.4506 22.0418 15.4165 22.0427 15.3822C22.0427 15.3169 22.0672 15.2517 22.1162 15.2069C22.1692 15.1579 22.2384 15.1334 22.3037 15.1377H24.8062C24.8754 15.1377 24.9447 15.1579 24.9977 15.2069Z" fill="#2E495E"/>
<path fill-rule="evenodd" clip-rule="evenodd" d="M26.1877 18.871C26.0104 18.7713 25.8627 18.6264 25.7597 18.451C25.7309 18.4073 25.7141 18.3568 25.711 18.3045C25.7106 18.2705 25.7177 18.2368 25.7318 18.2058C25.7459 18.1749 25.7666 18.1474 25.7924 18.1253C25.8374 18.0763 25.8984 18.0518 25.9634 18.0435C26.0614 18.056 26.1509 18.1048 26.2082 18.1823C26.2669 18.2816 26.3512 18.3635 26.4522 18.4194C26.5532 18.4752 26.6673 18.5031 26.7827 18.5C26.8765 18.5028 26.9698 18.4867 27.0573 18.4527C27.1447 18.4187 27.2244 18.3675 27.2917 18.3021C27.359 18.2367 27.4124 18.1585 27.4489 18.0721C27.4855 17.9857 27.5042 17.8928 27.5042 17.799V15.4025C27.5035 15.3672 27.5104 15.3322 27.5245 15.2999C27.5385 15.2675 27.5594 15.2386 27.5857 15.215C27.638 15.166 27.7068 15.1383 27.7785 15.1376C27.8503 15.1369 27.9196 15.1631 27.9729 15.211C27.9971 15.2358 28.0161 15.2651 28.0287 15.2973C28.0412 15.3295 28.0472 15.364 28.0462 15.3985V17.8033C28.0506 18.0188 27.9959 18.2315 27.8882 18.4182C27.7805 18.6049 27.6237 18.7587 27.4349 18.8628C27.2457 18.9704 27.0321 19.0276 26.8144 19.0291C26.5967 19.0305 26.3823 18.9761 26.1917 18.871H26.1877ZM29.9577 18.8873C29.7395 18.8056 29.54 18.6809 29.371 18.5205C29.337 18.4945 29.3091 18.4612 29.2894 18.4232C29.2696 18.3852 29.2585 18.3433 29.2567 18.3005C29.2571 18.2666 29.2646 18.2331 29.2786 18.2022C29.2926 18.1713 29.3129 18.1437 29.3382 18.121C29.3607 18.097 29.3878 18.0777 29.4179 18.0644C29.448 18.0511 29.4805 18.044 29.5135 18.0435C29.5748 18.0435 29.6278 18.0639 29.6725 18.1048C29.803 18.2273 29.9577 18.329 30.1207 18.4023C30.292 18.4673 30.4712 18.5 30.6507 18.5C30.8569 18.5056 31.06 18.4488 31.2334 18.337C31.3759 18.2555 31.4699 18.1048 31.4699 17.9378C31.4714 17.8503 31.4504 17.7639 31.409 17.6869C31.3676 17.6098 31.3072 17.5446 31.2334 17.4975C31.0142 17.3703 30.774 17.2834 30.5242 17.2408C30.1492 17.1593 29.8599 17.037 29.6562 16.8618C29.4524 16.6865 29.3544 16.4418 29.3544 16.132C29.3489 15.9284 29.4089 15.7284 29.5257 15.5615C29.644 15.3969 29.8046 15.2674 29.9904 15.1865C30.4132 15.018 30.8832 15.0108 31.3109 15.1663C31.4926 15.2269 31.6593 15.3255 31.7999 15.4555C31.8734 15.5125 31.9225 15.598 31.9225 15.688C31.9225 15.7206 31.916 15.7529 31.9033 15.7829C31.8907 15.813 31.8722 15.8402 31.8489 15.863C31.8268 15.8889 31.7993 15.9097 31.7683 15.9237C31.7372 15.9378 31.7035 15.9449 31.6695 15.9445C31.6249 15.9437 31.5818 15.9279 31.5472 15.8998C31.3076 15.6848 30.9971 15.5658 30.6752 15.5655C30.4705 15.5543 30.2672 15.6055 30.0922 15.7123C30.0258 15.7566 29.9713 15.8166 29.9337 15.887C29.896 15.9573 29.8763 16.0359 29.8763 16.1158C29.8763 16.1956 29.896 16.2742 29.9337 16.3446C29.9713 16.415 30.0258 16.475 30.0922 16.5193C30.2915 16.6365 30.5093 16.7192 30.7362 16.7638C30.9767 16.8088 31.209 16.8863 31.4332 16.9798C31.6045 17.0573 31.751 17.1755 31.853 17.3303C31.959 17.5098 32.008 17.7095 31.9997 17.9173C32.0042 18.1189 31.9426 18.3164 31.8244 18.4798C31.7003 18.6505 31.531 18.7832 31.3355 18.8628C30.8919 19.0323 30.403 19.041 29.9537 18.8873H29.9577Z" fill="#00C48D"/>
</g>
<defs>
<clipPath id="clip0_101_61">
<rect width="32" height="32" fill="white"/>
</clipPath>
</defs>
</svg>
